<?xml version="1.0" standalone="no"?><!-- Generator: Gravit.io --><svg xmlns="http://www.w3.org/2000/svg" xmlns:xlink="http://www.w3.org/1999/xlink" style="isolation:isolate" viewBox="677 301 168 168" width="168" height="168"><path d=" M 677 301 L 845 301 L 845 469 L 677 469 L 677 301 Z " fill="rgb(69,59,138)"/><path d=" M 736.4 410.8 L 736.4 410.8 L 729.65 410.8 L 729.65 428.5 L 729.65 428.5 Q 740.6 430.9 743.3 434.35 L 743.3 434.35 L 741.8 446.8 L 701.3 446.8 L 699.8 434.35 L 699.8 434.35 Q 701.75 431.8 708.05 429.4 L 708.05 429.4 L 708.05 360.85 L 708.05 360.85 Q 701.9 358.6 699.8 355.75 L 699.8 355.75 L 701.3 343.3 L 741.05 343.3 L 741.05 343.3 Q 761.9 343.6 772.175 350.875 L 772.175 350.875 L 772.175 350.875 Q 782.45 358.15 782.45 376.75 L 782.45 376.75 L 782.45 376.75 Q 782.45 410.8 736.4 410.8 Z  M 738.65 359.65 L 738.65 359.65 L 729.65 359.65 L 729.65 394.45 L 739.7 394.45 L 739.7 394.45 Q 749.9 394.45 754.925 390.4 L 754.925 390.4 L 754.925 390.4 Q 759.95 386.35 759.95 376.375 L 759.95 376.375 L 759.95 376.375 Q 759.95 366.4 754.475 363.025 L 754.475 363.025 L 754.475 363.025 Q 749 359.65 738.65 359.65 Z " fill="rgb(255,255,255)"/></svg>